#!OML:ASF X:\für Bonn\!DataBase\2005_08_10_Bjorn_Final\c3d\bjorn.ASF
:FULLY-SPECIFIED
:DEGREES
91
root 1.17927 18.2232 0.367059 -233.355 9.98516 167.21
lowerback 20.2365 3.11456 -1.72472
upperback 18.469 11.8144 -10.2731
thorax 11.323 9.94209 -10.7637
lowerneck 10.2714 7.78839 -8.22787
upperneck 11.5946 8.06804 3.47421
head 1.46706 3.11376 2.30314
rclavicle -5.14852e-014 6.99722e-014
rhumerus 15.8894 15.9022 -49.8979
rradius 41.0551
rwrist 4.07122
rhand -15.1477 21.9354
rfingers 7.12502
rthumb 11.0223 -7.75522
lclavicle -5.14852e-014 6.99722e-014
lhumerus -355.632 0.998259 -303.837
lradius 86.0201
lwrist -4.66216
lhand -55.7019 -9.40938
lfingers 7.12502
lthumb -28.0513 18.5136
rfemur 33.0524 4.11507 7.18442
rtibia 47.562
rfoot 0.919788 17.8076
rtoes -9.98904
lfemur -64.0558 22.801 -5.99404
ltibia 10.8384
lfoot 6.99886 15.477
ltoes -26.5321
92
root 1.15906 18.1986 0.316693 -233.876 10.5725 166.975
lowerback 19.2113 3.21507 -1.10651
upperback 18.4998 11.8095 -9.92441
thorax 11.8878 9.86621 -10.5729
lowerneck 9.74519 8.28064 -7.68861
upperneck 13.2392 8.6643 2.72253
head 2.12407 3.29498 2.00503
rclavicle -9.24349e-015 -7.63333e-014
rhumerus 16.4227 15.5736 -49.9746
rradius 41.0149
rwrist 3.99668
rhand -15.1372 22.4526
rfingers 7.12502
rthumb 11.0324 -7.23749
lclavicle -9.24349e-015 -7.63333e-014
lhumerus -358.223 1.76502 -304.428
lradius 85.3938
lwrist -5.05634
lhand -56.5915 -7.1583
lfingers 7.12502
lthumb -28.9014 20.6224
rfemur 32.8867 4.33929 6.78915
rtibia 48.3258
rfoot 1.97742 18.4247
rtoes -8.76001
lfemur -60.2405 21.8928 -3.14089
ltibia 8.76474
lfoot 6.4455 18.9396
ltoes -25.4629
93
root 1.14494 18.177 0.270271 -234.186 10.981 166.949
lowerback 18.0419 3.25252 -0.53568
upperback 18.5635 11.7092 -9.53601
thorax 12.5455 9.73118 -10.2837
lowerneck 8.6875 8.73836 -7.10614
upperneck 15.1298 9.28635 1.9914
head 2.97902 3.47784 1.75387
rclavicle -1.63376e-014 9.54166e-014
rhumerus 16.8987 15.2392 -50.0129
rradius 41.0964
rwrist 3.99055
rhand -15.2046 22.8721
rfingers 7.12502
rthumb 10.9674 -6.82144
lclavicle -1.63376e-014 9.54166e-014
lhumerus -360.444 2.4194 -305.034
lradius 84.1854
lwrist -5.97133
lhand -57.4471 -4.24905
lfingers 7.12502
lthumb -29.7183 23.3889
rfemur 32.7011 4.40794 6.55009
rtibia 48.9957
rfoot 3.00738 18.9824
rtoes -7.38958
lfemur -57.5531 20.5237 -0.579186
ltibia 8.73432
lfoot 5.55408 22.2014
ltoes -25.0666
94
root 1.13902 18.1606 0.227593 -234.234 11.182 167.101
lowerback 16.6768 3.25215 -0.0346515
upperback 18.5895 11.5193 -9.14274
thorax 13.249 9.52694 -9.92929
lowerneck 7.5279 9.18316 -6.4864
upperneck 16.9221 9.93056 1.25766
head 3.86325 3.6688 1.51228
rclavicle -9.24349e-014 9.54166e-015
rhumerus 17.1958 14.9668 -50.0463
rradius 41.3625
rwrist 3.93303
rhand -15.2609 23.1445
rfingers 7.12502
rthumb 10.9131 -6.55188
lclavicle -9.24349e-014 9.54166e-015
lhumerus -362.501 2.79545 -305.717
lradius 82.6501
lwrist -6.9165
lhand -58.1402 -1.60962
lfingers 7.12502
lthumb -30.3796 25.9082
rfemur 32.4286 4.36423 6.44741
rtibia 49.5811
rfoot 4.06747 19.476
rtoes -5.58008
lfemur -55.9465 18.7476 1.61862
ltibia 10.521
lfoot 3.93081 24.5508
ltoes -23.8045
95
root 1.14107 18.1495 0.188112 -234.077 11.1758 167.344
lowerback 15.5542 3.26666 0.205068
upperback 18.0082 11.2304 -8.6048
thorax 14.0797 9.29506 -9.61537
lowerneck 6.51947 9.59005 -5.76435
upperneck 18.471 10.5472 0.426448
head 4.69383 3.84939 1.2154
rclavicle -3.27995e-014 -1.27222e-014
rhumerus 17.2035 14.7591 -50.1046
rradius 41.7612
rwrist 3.83555
rhand -15.2878 23.309
rfingers 7.12502
rthumb 10.8871 -6.38879
lclavicle -3.27995e-014 -1.27222e-014
lhumerus -364.378 2.74193 -306.491
lradius 80.8188
lwrist -7.30892
lhand -57.7602 -0.216831
lfingers 7.12502
lthumb -30.017 27.3674
rfemur 32.0705 4.26159 6.39356
rtibia 50.0812
rfoot 5.06354 19.9571
rtoes -3.7185
lfemur -55.0658 16.6873 3.42614
ltibia 13.2567
lfoot 2.8981 26.3905
ltoes -24.0423
96
root 1.14769 18.1399 0.152499 -233.801 10.9839 167.602
lowerback 14.0582 3.28829 0.430118
upperback 17.8965 11.013 -8.29992
thorax 14.6491 9.02227 -9.17875
lowerneck 5.45557 9.92123 -4.94356
upperneck 20.3383 11.118 -0.442275
head 5.02341 4.01353 0.840364
rclavicle -3.33958e-014 -1.11319e-014
rhumerus 16.9504 14.5673 -50.1512
rradius 42.2906
rwrist 3.68907
rhand -15.265 23.3859
rfingers 7.12502
rthumb 10.9092 -6.3107
lclavicle -3.33958e-014 -1.11319e-014
lhumerus -365.93 2.29009 -307.263
lradius 78.8155
lwrist -7.16952
lhand -56.4824 0.21218
lfingers 7.12502
lthumb -28.7971 28.0106
rfemur 31.647 4.10441 6.25924
rtibia 50.5287
rfoot 5.90167 20.5718
rtoes -2.3099
lfemur -54.5092 14.4089 4.87387
ltibia 16.2357
lfoot 2.96746 27.5452
ltoes -25.0234
97
root 1.15648 18.1279 0.120392 -233.494 10.7037 167.881
lowerback 12.6819 3.32917 0.578133
upperback 17.7222 10.8166 -8.03837
thorax 15.0908 8.75968 -8.78537
lowerneck 4.88188 10.1932 -4.13119
upperneck 21.1918 11.6157 -1.42149
head 5.48614 4.172 0.470631
rclavicle -1.07344e-014 1.17681e-013
rhumerus 16.4559 14.4329 -50.1631
rradius 42.8877
rwrist 3.45635
rhand -15.4101 23.5163
rfingers 7.12502
rthumb 10.7692 -6.18769
lclavicle -1.07344e-014 1.17681e-013
lhumerus -367.092 1.59617 -307.97
lradius 76.7361
lwrist -6.58953
lhand -55.356 -0.922463
lfingers 7.12502
lthumb -27.7206 27.0542
rfemur 31.2559 3.89707 6.10894
rtibia 50.9263
rfoot 6.45864 21.2902
rtoes -1.77671
lfemur -55.0335 15.585 2.4115
ltibia 19.1144
lfoot 6.55442 22.8213
ltoes -27.879
98
root 1.16639 18.1098 0.0960807 -233.256 10.3657 168.112
lowerback 11.6189 3.41138 0.649115
upperback 17.4717 10.6824 -7.839
thorax 15.2806 8.53777 -8.4791
lowerneck 4.53936 10.4012 -3.4017
upperneck 21.715 12.0163 -2.2857
head 5.80612 4.30739 0.130786
rclavicle -3.57812e-015 1.11319e-014
rhumerus 15.6434 14.3086 -50.1773
rradius 43.5731
rwrist 3.13323
rhand -15.6132 23.6079
rfingers 7.12502
rthumb 10.5732 -6.1061
lclavicle -3.57812e-015 1.11319e-014
lhumerus -367.753 0.75105 -308.52
lradius 74.4517
lwrist -6.25676
lhand -54.5307 -2.76774
lfingers 7.12502
lthumb -26.9312 25.3333
rfemur 30.9437 3.67821 5.90549
rtibia 51.2965
rfoot 6.63797 22.1656
rtoes -2.40835
lfemur -55.1921 16.3871 0.379463
ltibia 21.7919
lfoot 9.15617 17.8715
ltoes -29.3486
